<svg width="16" height="16" viewBox="0 0 16 16" fill="none" xmlns="http://www.w3.org/2000/svg">
<path d="M15.1109 3.09273C14.918 2.59455 14.6232 2.14213 14.2453 1.76444C13.8675 1.38676 13.415 1.09212 12.9167 0.899395C12.3337 0.680525 11.7177 0.562179 11.095 0.549394C10.2925 0.514394 10.0384 0.504395 8.00338 0.504395C5.96838 0.504395 5.70754 0.504394 4.91171 0.549394C4.28953 0.561525 3.67401 0.679896 3.09171 0.899395C2.59332 1.0919 2.14068 1.38645 1.76282 1.76417C1.38496 2.14188 1.09023 2.59441 0.897542 3.09273C0.67863 3.67574 0.560554 4.29176 0.548376 4.91439C0.512542 5.71606 0.501709 5.97023 0.501709 8.00606C0.501709 10.0411 0.501709 10.3002 0.548376 11.0977C0.560876 11.7211 0.678376 12.3361 0.897542 12.9202C1.09077 13.4184 1.38579 13.8707 1.76374 14.2484C2.14169 14.626 2.59426 14.9207 3.09254 15.1136C3.67374 15.3412 4.28952 15.468 4.91338 15.4886C5.71588 15.5236 5.97004 15.5344 8.00504 15.5344C10.04 15.5344 10.3009 15.5344 11.0967 15.4886C11.7193 15.4759 12.3352 15.3578 12.9184 15.1394C13.4165 14.9462 13.8689 14.6513 14.2467 14.2735C14.6245 13.8958 14.9194 13.4434 15.1125 12.9452C15.3317 12.3619 15.4492 11.7469 15.4617 11.1236C15.4975 10.3219 15.5084 10.0677 15.5084 8.0319C15.5084 5.99606 15.5084 5.73773 15.4617 4.94023C15.452 4.30879 15.3333 3.68377 15.1109 3.09273ZM14.0959 11.0361C14.0905 11.5163 14.0028 11.9921 13.8367 12.4427C13.7116 12.7668 13.52 13.0611 13.2743 13.3066C13.0286 13.5522 12.7342 13.7436 12.41 13.8686C11.9644 14.0339 11.4937 14.1216 11.0184 14.1277C10.2267 14.1644 10.0034 14.1736 7.97338 14.1736C5.94171 14.1736 5.73421 14.1736 4.92754 14.1277C4.45248 14.1219 3.98198 14.0342 3.53671 13.8686C3.21145 13.7444 2.91588 13.5533 2.66912 13.3077C2.42236 13.0621 2.22991 12.7674 2.10421 12.4427C1.94041 11.9969 1.8528 11.5268 1.84504 11.0519C1.80921 10.2602 1.80088 10.0369 1.80088 8.0069C1.80088 5.97606 1.80088 5.76856 1.84504 4.96106C1.85043 4.48108 1.93809 4.00558 2.10421 3.55523C2.35838 2.89773 2.87921 2.38023 3.53671 2.12856C3.9822 1.96368 4.45256 1.87603 4.92754 1.86939C5.72004 1.83356 5.94254 1.82356 7.97338 1.82356C10.0042 1.82356 10.2125 1.82356 11.0184 1.86939C11.4937 1.87511 11.9645 1.96279 12.41 2.12856C12.7341 2.25379 13.0285 2.4454 13.2742 2.69109C13.5199 2.93678 13.7115 3.23112 13.8367 3.55523C14.0005 4.00102 14.0881 4.47119 14.0959 4.94606C14.1317 5.73856 14.1409 5.96106 14.1409 7.9919C14.1409 10.0219 14.1409 10.2402 14.105 11.0369H14.0959V11.0361Z" fill="white"/>
</svg>
